<svg width="109" height="40" viewBox="0 0 109 40" fill="none" xmlns="http://www.w3.org/2000/svg">
<g clip-path="url(#clip0_64_4432)">
<path d="M0.321838 3.73853H6.45085L16.2098 16.2654V3.73853H22.706V27.4362H16.9442L6.81805 14.4293V27.4362H0.321838V3.73853H0.321838Z" fill="#1F2725"/>
<path d="M40.8113 27.436V23.7503L36.2639 21.8577L31.8434 23.6937V0.405762L25.3187 3.75279V27.436H40.8113V27.436Z" fill="#1F2725"/>
<path d="M39.9495 15.6579V15.5873C39.9495 8.68136 45.2598 3.2583 52.4483 3.2583C57.2922 3.2583 60.3993 5.29181 62.5034 8.201L57.5603 12.0284C56.2047 10.3336 54.6511 9.24641 52.3776 9.24641C49.0587 9.24641 46.7286 12.0565 46.7286 15.5167V15.5873C46.7286 19.1462 49.0587 21.9142 52.3776 21.9142C54.849 21.9142 56.3034 20.756 57.7301 19.0331L62.6728 22.5498C60.4414 25.6284 57.4191 27.9023 52.1798 27.9023C45.4011 27.9163 39.9495 22.7333 39.9495 15.6579V15.6579Z" fill="#1F2725"/>
<path d="M68.2371 3.72437H68.7877L72.0926 7.93301V3.72437H72.6717V8.96401H72.2054L68.8162 4.67067V8.96401H68.2371V3.72437V3.72437Z" fill="#1F2725"/>
<path d="M76.0893 3.68237H76.6399L79.0266 8.96417H78.3913L77.7841 7.58003H74.9311L74.3098 8.96417H73.7026L76.0893 3.68237V3.68237ZM77.5581 7.05751L76.3718 4.38832L75.1711 7.05751H77.5581Z" fill="#1F2725"/>
<path d="M80.6932 4.27536H78.9278V3.72437H83.0514V4.27536H81.2864V8.97806H80.6932V4.27536V4.27536Z" fill="#1F2725"/>
<path d="M84.7749 3.72437H84.1818V8.964H84.7749V3.72437Z" fill="#1F2725"/>
<path d="M86.0737 6.36541C86.0737 4.91064 87.1613 3.63965 88.757 3.63965C90.353 3.63965 91.4262 4.89659 91.4262 6.33695V6.35136C91.4262 7.79172 90.339 9.06271 88.7429 9.06271C87.1472 9.06271 86.0737 7.80577 86.0737 6.36541ZM90.8049 6.36541C90.8049 5.16505 89.9292 4.19028 88.7429 4.19028C87.5566 4.19028 86.695 5.15064 86.695 6.33695V6.35136C86.695 7.53767 87.5707 8.51208 88.757 8.51208C89.9433 8.51208 90.8049 7.55172 90.8049 6.36541Z" fill="#1F2725"/>
<path d="M92.6694 3.72437H93.2201L96.5249 7.93301V3.72437H97.104V8.96401H96.6377L93.2485 4.67067V8.96401H92.6694V3.72437V3.72437Z" fill="#1F2725"/>
<path d="M100.536 3.68237H101.086L103.473 8.96417H102.838L102.23 7.58003H99.3775L98.7562 8.96417H98.149L100.536 3.68237V3.68237ZM101.99 7.05751L100.804 4.38832L99.6034 7.05751H101.99Z" fill="#1F2725"/>
<path d="M104.504 3.72437H105.097V8.42743H108.049V8.97806H104.504V3.72437V3.72437Z" fill="#1F2725"/>
<path d="M68.2371 12.9609H68.8302V17.6636H71.7819V18.2143H68.2371V12.9609Z" fill="#1F2725"/>
<path d="M72.8413 12.9609H76.6262V13.4975H73.4345V15.291H76.3015V15.8276H73.4345V17.6636H76.6687V18.2002H72.8413V12.9609V12.9609Z" fill="#1F2725"/>
<path d="M79.8035 12.9324H80.3542L82.7408 18.2142H82.1055L81.4983 16.8304H78.6453L78.0241 18.2142H77.4169L79.8035 12.9324V12.9324ZM81.258 16.2935L80.0716 13.6102L78.8713 16.2794L81.258 16.2935V16.2935Z" fill="#1F2725"/>
<path d="M83.2352 15.6015C83.2352 14.1467 84.2943 12.8757 85.8619 12.8757C86.7516 12.8757 87.2882 13.1301 87.8107 13.568L87.4295 14.0199C87.0201 13.6667 86.5823 13.4267 85.8338 13.4267C84.6756 13.4267 83.8424 14.4011 83.8424 15.5734V15.5874C83.8424 16.8444 84.6475 17.7622 85.9185 17.7622C86.5116 17.7622 87.0767 17.5363 87.4295 17.2397V15.9406H85.8338V15.4037H87.9945V17.4941C87.5145 17.9316 86.7801 18.2988 85.8904 18.2988C84.2662 18.2988 83.2352 17.0984 83.2352 15.6015V15.6015Z" fill="#1F2725"/>
<path d="M89.2655 16.0114V12.9609H89.8587V15.9689C89.8587 17.0986 90.4518 17.7343 91.4687 17.7343C92.4291 17.7343 93.0504 17.1552 93.0504 15.997V12.9609H93.6435V15.9689C93.6435 17.4943 92.7678 18.2849 91.4547 18.2849C90.1552 18.2849 89.2655 17.4943 89.2655 16.0114V16.0114Z" fill="#1F2725"/>
<path d="M95.0276 12.9609H98.8125V13.4975H95.6208V15.291H98.4875V15.8276H95.6208V17.6636H98.8547V18.2002H95.0276V12.9609V12.9609Z" fill="#1F2725"/>
<path d="M68.0112 24.8375V24.8234C68.0112 23.3831 69.0987 22.1121 70.6944 22.1121C72.2904 22.1121 73.3636 23.369 73.3636 24.8094V24.8234C73.3636 26.2641 72.276 27.5351 70.6804 27.5351C69.0703 27.5351 68.0112 26.2922 68.0112 24.8375ZM72.7423 24.8375V24.8234C72.7423 23.6371 71.8667 22.6627 70.6804 22.6627C69.4941 22.6627 68.6324 23.6231 68.6324 24.8094V24.8234C68.6324 26.0097 69.5081 26.9841 70.6944 26.9841C71.8807 26.9841 72.7423 26.0382 72.7423 24.8375Z" fill="#1F2725"/>
<path d="M74.6066 22.1968H78.3774V22.7474H75.1998V24.626H78.0383V25.1625H75.1998V27.4505H74.6066V22.1968Z" fill="#1F2725"/>
<path d="M81.5264 24.8375V24.8234C81.5264 23.3405 82.6421 22.1121 84.1816 22.1121C85.1275 22.1121 85.7066 22.4508 86.2291 22.9452L85.8198 23.3831C85.3819 22.9593 84.8875 22.6627 84.1671 22.6627C83.0093 22.6627 82.1336 23.609 82.1336 24.8094V24.8234C82.1336 26.0382 83.0093 26.9841 84.1671 26.9841C84.8875 26.9841 85.3535 26.7016 85.8619 26.2216L86.2576 26.6029C85.7066 27.1539 85.1135 27.5207 84.1531 27.5207C82.6562 27.5351 81.5264 26.3488 81.5264 24.8375Z" fill="#1F2725"/>
<path d="M87.9667 22.1968H87.3735V27.4505H87.9667V22.1968Z" fill="#1F2725"/>
<path d="M90.8617 22.7474H89.0963V22.1968H93.2199V22.7474H91.4549V27.4505H90.8617V22.7474Z" fill="#1F2725"/>
<path d="M94.9569 22.1968H94.3638V27.4505H94.9569V22.1968Z" fill="#1F2725"/>
<path d="M96.4824 22.1968H100.267V22.7334H97.0755V24.5269H99.9425V25.0634H97.0755V26.8995H100.31V27.4361H96.4824V22.1968V22.1968Z" fill="#1F2725"/>
<path d="M101.157 26.6875L101.524 26.2497C102.075 26.7441 102.598 26.9982 103.318 26.9982C104.024 26.9982 104.49 26.6169 104.49 26.1084V26.0944C104.49 25.6144 104.221 25.3318 103.12 25.0918C101.919 24.8234 101.355 24.4421 101.355 23.5805V23.5664C101.355 22.7473 102.075 22.1401 103.078 22.1401C103.84 22.1401 104.391 22.352 104.914 22.7899L104.575 23.2418C104.095 22.8464 103.6 22.6767 103.064 22.6767C102.386 22.6767 101.948 23.058 101.948 23.5243V23.5383C101.948 24.0327 102.216 24.3149 103.374 24.5553C104.546 24.8093 105.083 25.2331 105.083 26.0382V26.0522C105.083 26.956 104.335 27.5351 103.289 27.5351C102.47 27.5207 101.793 27.2385 101.157 26.6875V26.6875Z" fill="#1F2725"/>
<path d="M105.055 31.9553H0.321777V32.6332H105.055V31.9553Z" fill="#1F2725"/>
<path d="M0.321838 37.6889C0.321838 36.8842 0.929046 36.2205 1.79067 36.2205C2.32724 36.2205 2.63787 36.4039 2.90634 36.6579L2.51067 37.1102C2.29914 36.9124 2.07319 36.7851 1.79067 36.7851C1.31031 36.7851 0.971568 37.1808 0.971568 37.6608V37.6749C0.971568 38.1552 1.31031 38.5646 1.79067 38.5646C2.11535 38.5646 2.31319 38.4374 2.52508 38.2399L2.9204 38.6352C2.62382 38.9459 2.31319 39.1437 1.7622 39.1437C0.929046 39.1437 0.321838 38.494 0.321838 37.6889H0.321838Z" fill="#1F2725"/>
<path d="M4.37474 36.2766H3.75348V39.1011H4.37474V36.2766Z" fill="#1F2725"/>
<path d="M6.02733 36.8417H5.16571V36.2766H7.49616V36.8417H6.63454V39.0871H6.01328L6.02733 36.8417Z" fill="#1F2725"/>
<path d="M8.93681 36.2766H8.31555V39.1011H8.93681V36.2766Z" fill="#1F2725"/>
<path d="M9.9389 36.2766H12.0575V36.8276H10.5605V37.3923H11.8881V37.9433H10.5605V38.5364H12.0856V39.0871H9.9389V36.2766V36.2766Z" fill="#1F2725"/>
<path d="M12.7496 38.6778L13.1168 38.2399C13.3713 38.4518 13.6394 38.5787 13.9644 38.5787C14.2185 38.5787 14.3738 38.4799 14.3738 38.3105V38.2965C14.3738 38.1408 14.275 38.0561 13.8091 37.9433C13.244 37.8021 12.8768 37.6468 12.8768 37.0817V37.0677C12.8768 36.5592 13.2862 36.2205 13.8653 36.2205C14.275 36.2205 14.6282 36.3473 14.9104 36.5733L14.5857 37.0396C14.3316 36.8698 14.0913 36.757 13.8513 36.757C13.6113 36.757 13.484 36.8698 13.484 36.997V37.0111C13.484 37.1949 13.6113 37.2511 14.0913 37.3783C14.6563 37.5336 14.981 37.7314 14.981 38.2259V38.2399C14.981 38.8046 14.5576 39.1156 13.95 39.1156C13.5125 39.1296 13.0887 38.9884 12.7496 38.6778V38.6778Z" fill="#1F2725"/>
<path d="M17.1276 38.6778L17.4948 38.2399C17.7492 38.4518 18.0173 38.5787 18.3423 38.5787C18.5964 38.5787 18.7517 38.4799 18.7517 38.3105V38.2965C18.7517 38.1408 18.653 38.0561 18.1867 37.9433C17.622 37.8021 17.2548 37.6468 17.2548 37.0817V37.0677C17.2548 36.5592 17.6641 36.2205 18.2432 36.2205C18.653 36.2205 19.0058 36.3473 19.2883 36.5733L18.9636 37.0536C18.7092 36.8842 18.4692 36.7711 18.2292 36.7711C17.9892 36.7711 17.862 36.8842 17.862 37.0111V37.0251C17.862 37.2089 17.9892 37.2655 18.4692 37.3924C19.0342 37.5477 19.3589 37.7455 19.3589 38.2399V38.254C19.3589 38.819 18.9355 39.1296 18.3279 39.1296C17.9045 39.1296 17.4667 38.9884 17.1276 38.6778V38.6778Z" fill="#1F2725"/>
<path d="M20.7997 36.8417H19.938V36.2766H22.2681V36.8417H21.4069V39.0871H20.7997V36.8417Z" fill="#1F2725"/>
<path d="M23.0591 36.2766H24.3441C24.6973 36.2766 24.9798 36.3757 25.1632 36.5591C25.3185 36.7144 25.4036 36.9404 25.4036 37.2089V37.2229C25.4036 37.6748 25.1632 37.9573 24.796 38.0986L25.4883 39.1011H24.7679L24.1607 38.1973H23.6803V39.1011H23.0591V36.2766V36.2766ZM24.302 37.6467C24.5985 37.6467 24.782 37.4914 24.782 37.251V37.237C24.782 36.9689 24.5985 36.8276 24.302 36.8276H23.6803V37.6326L24.302 37.6467Z" fill="#1F2725"/>
<path d="M26.1522 37.6889C26.1522 36.8842 26.7875 36.2205 27.6492 36.2205C28.5104 36.2205 29.1461 36.8698 29.1461 37.6749V37.6889C29.1461 38.494 28.5104 39.1437 27.6492 39.1437C26.7875 39.1437 26.1522 38.494 26.1522 37.6889ZM28.4964 37.6889C28.4964 37.1949 28.1432 36.7992 27.6492 36.7992C27.1547 36.7992 26.8016 37.1949 26.8016 37.6749V37.6889C26.8016 38.1693 27.1547 38.5787 27.6492 38.5787C28.1432 38.5646 28.4964 38.1693 28.4964 37.6889V37.6889Z" fill="#1F2725"/>
<path d="M29.9932 36.2766H30.5582L31.8717 38.0139V36.2766H32.4789V39.1011H31.9564L30.5863 37.3076V39.1011H29.9791L29.9932 36.2766V36.2766Z" fill="#1F2725"/>
<path d="M33.3546 37.6889C33.3546 36.8842 33.9758 36.2205 34.8374 36.2205C35.3455 36.2205 35.6565 36.3614 35.9387 36.6017L35.5434 37.0677C35.3315 36.8842 35.134 36.7851 34.809 36.7851C34.3571 36.7851 34.0039 37.1808 34.0039 37.6608V37.6749C34.0039 38.1833 34.3571 38.5646 34.8515 38.5646C35.0774 38.5646 35.2749 38.508 35.4306 38.3952V37.9855H34.809V37.4489H36.0378V38.6778C35.7412 38.9178 35.3455 39.1296 34.8374 39.1296C33.9618 39.1437 33.3546 38.5224 33.3546 37.6889V37.6889Z" fill="#1F2725"/>
<path d="M39.1023 36.8417H38.2407V36.2766H40.5712V36.8417H39.7236V39.0871H39.1023V36.8417V36.8417Z" fill="#1F2725"/>
<path d="M41.1077 37.6889C41.1077 36.8842 41.743 36.2205 42.6046 36.2205C43.4662 36.2205 44.1015 36.8698 44.1015 37.6749V37.6889C44.1015 38.494 43.4662 39.1437 42.6046 39.1437C41.743 39.1437 41.1077 38.494 41.1077 37.6889ZM43.4518 37.6889C43.4518 37.1949 43.099 36.7992 42.6046 36.7992C42.1102 36.7992 41.7574 37.1949 41.7574 37.6749V37.6889C41.7574 38.1693 42.1102 38.5787 42.6046 38.5787C43.1131 38.5646 43.4518 38.1693 43.4518 37.6889V37.6889Z" fill="#1F2725"/>
<path d="M44.8359 37.6889C44.8359 36.8842 45.4571 36.2205 46.3188 36.2205C46.8272 36.2205 47.1379 36.3614 47.4204 36.6017L47.0251 37.0677C46.8132 36.8842 46.6153 36.7851 46.2907 36.7851C45.8388 36.7851 45.4856 37.1808 45.4856 37.6608V37.6749C45.4856 38.1833 45.8388 38.5646 46.3328 38.5646C46.5588 38.5646 46.7566 38.508 46.9119 38.3952V37.9855H46.2907V37.4489H47.5191V38.6778C47.2225 38.9178 46.8272 39.1296 46.3188 39.1296C45.4431 39.1437 44.8359 38.5224 44.8359 37.6889V37.6889Z" fill="#1F2725"/>
<path d="M48.409 36.2766H50.5416V36.8276H49.0306V37.3923H50.3578V37.9433H49.0306V38.5364H50.5557V39.0871H48.409V36.2766V36.2766Z" fill="#1F2725"/>
<path d="M52.0811 36.8417H51.2195V36.2766H53.5496V36.8417H52.6883V39.0871H52.0667V36.8417H52.0811V36.8417Z" fill="#1F2725"/>
<path d="M54.3263 36.2766H54.9476V37.3923H56.0917V36.2766H56.713V39.1011H56.0917V37.9714H54.9476V39.1011H54.3263V36.2766Z" fill="#1F2725"/>
<path d="M57.6735 36.2766H59.8061V36.8276H58.2948V37.3923H59.6224V37.9433H58.2948V38.5364H59.8202V39.0871H57.6735V36.2766V36.2766Z" fill="#1F2725"/>
<path d="M60.6961 36.2766H61.9812C62.3343 36.2766 62.6165 36.3757 62.8003 36.5591C62.9556 36.7144 63.0403 36.9404 63.0403 37.2089V37.2229C63.0403 37.6748 62.8003 37.9573 62.433 38.0986L63.1249 39.1011H62.4049L61.7974 38.1973H61.3174V39.1011H60.6961V36.2766V36.2766ZM61.9386 37.6467C62.2352 37.6467 62.419 37.4914 62.419 37.251V37.237C62.419 36.9689 62.2352 36.8276 61.9386 36.8276H61.3174V37.6326L61.9386 37.6467Z" fill="#1F2725"/>
</g>
<defs>
<clipPath id="clip0_64_4432">
<rect width="108.108" height="40" fill="white"/>
</clipPath>
</defs>
</svg>
